<svg width="72" height="72" viewBox="0 0 72 72" fill="none" xmlns="http://www.w3.org/2000/svg">
<path d="M44.03 16.2375C44.1573 15.5215 44.7797 15 45.5069 15H57.9932C58.7203 15 59.3427 15.5215 59.47 16.2374L65.25 48.75L66.4665 62.7401C66.619 64.4929 65.2372 66 63.4778 66H40.0222C38.2628 66 36.8811 64.4929 37.0335 62.7401L38.25 48.75L44.03 16.2375Z" fill="#DF8D12"/>
<path fill-rule="evenodd" clip-rule="evenodd" d="M36.7616 48.5534L42.5533 15.9749C42.8078 14.5431 44.0527 13.5 45.507 13.5H57.9933C59.4476 13.5 60.6924 14.5431 60.947 15.9749L66.7387 48.5534L67.961 62.6102C68.1896 65.2394 66.117 67.5 63.4779 67.5H40.0223C37.3832 67.5 35.3106 65.2394 35.5392 62.6102L36.7616 48.5534ZM45.507 15C44.7798 15 44.1574 15.5215 44.0301 16.2375L38.2501 48.75L37.0336 62.7401C36.8812 64.4929 38.2629 66 40.0223 66H63.4779C65.2373 66 66.6191 64.4929 66.4667 62.7401L65.2501 48.75L59.4701 16.2375C59.3428 15.5215 58.7204 15 57.9933 15H45.507Z" fill="#5B3303"/>
<path d="M40.0354 66H63.4652C65.2293 66 66.6126 64.4852 66.4529 62.7284L65.4983 52.2284C65.3579 50.6832 64.0623 49.5 62.5107 49.5H40.9899C39.4383 49.5 38.1427 50.6832 38.0023 52.2284L37.0477 62.7284C36.888 64.4852 38.2713 66 40.0354 66Z" fill="#FFB423"/>
<path d="M38.0148 52.2438L37.125 62.625L60 49.5H41.0039C39.4463 49.5 38.1478 50.6919 38.0148 52.2438Z" fill="#FFC149"/>
<path d="M46.5 16.5L41.25 46.5L57 16.5H46.5Z" fill="#E9981F"/>
<path fill-rule="evenodd" clip-rule="evenodd" d="M45.8734 15.7602C46.282 15.8283 46.558 16.2147 46.4899 16.6233L41.2399 48.1233C41.1718 48.5319 40.7854 48.8079 40.3768 48.7398C39.9682 48.6717 39.6922 48.2853 39.7603 47.8767L45.0103 16.3767C45.0784 15.9681 45.4648 15.6921 45.8734 15.7602Z" fill="#FFC351"/>
<path fill-rule="evenodd" clip-rule="evenodd" d="M41.7484 40.5102C42.157 40.5783 42.433 40.9647 42.3649 41.3733L41.2399 48.1233C41.1718 48.5319 40.7854 48.8079 40.3768 48.7398C39.9682 48.6717 39.6922 48.2853 39.7603 47.8767L40.8853 41.1267C40.9534 40.7181 41.3398 40.4421 41.7484 40.5102Z" fill="#FFD991"/>
<path fill-rule="evenodd" clip-rule="evenodd" d="M41.1302 51.75C40.7402 51.75 40.4152 52.049 40.3828 52.4377L40.1225 55.5623C40.0881 55.9751 39.7255 56.2818 39.3128 56.2474C38.9 56.213 38.5932 55.8505 38.6276 55.4377L38.888 52.3131C38.9852 51.147 39.9601 50.25 41.1302 50.25H44.2501C44.6643 50.25 45.0001 50.5858 45.0001 51C45.0001 51.4142 44.6643 51.75 44.2501 51.75H41.1302Z" fill="#FFFAED"/>
<path d="M59.25 37.875C59.25 38.4963 58.4105 39 57.375 39C56.3395 39 55.5 38.4963 55.5 37.875C55.5 37.2537 56.3395 36.75 57.375 36.75C58.4105 36.75 59.25 37.2537 59.25 37.875Z" fill="#C17707"/>
<path d="M60 33C60 33.4142 59.3284 33.75 58.5 33.75C57.6716 33.75 57 33.4142 57 33C57 32.5858 57.6716 32.25 58.5 32.25C59.3284 32.25 60 32.5858 60 33Z" fill="#C17707"/>
<path d="M57.75 29.25C57.75 29.6642 57.0784 30 56.25 30C55.4216 30 54.75 29.6642 54.75 29.25C54.75 28.8358 55.4216 28.5 56.25 28.5C57.0784 28.5 57.75 28.8358 57.75 29.25Z" fill="#C17707"/>
<path d="M58.5 24.375C58.5 24.5821 58.1642 24.75 57.75 24.75C57.3358 24.75 57 24.5821 57 24.375C57 24.1679 57.3358 24 57.75 24C58.1642 24 58.5 24.1679 58.5 24.375Z" fill="#C17707"/>
<path d="M60 27.375C60 27.5821 59.6642 27.75 59.25 27.75C58.8358 27.75 58.5 27.5821 58.5 27.375C58.5 27.1679 58.8358 27 59.25 27C59.6642 27 60 27.1679 60 27.375Z" fill="#C17707"/>
<path d="M56.25 31.875C56.25 32.0821 55.9142 32.25 55.5 32.25C55.0858 32.25 54.75 32.0821 54.75 31.875C54.75 31.6679 55.0858 31.5 55.5 31.5C55.9142 31.5 56.25 31.6679 56.25 31.875Z" fill="#C17707"/>
<path d="M60.75 35.625C60.75 35.8321 60.4142 36 60 36C59.5858 36 59.25 35.8321 59.25 35.625C59.25 35.4179 59.5858 35.25 60 35.25C60.4142 35.25 60.75 35.4179 60.75 35.625Z" fill="#C17707"/>
<path d="M57 34.875C57 35.0821 56.6642 35.25 56.25 35.25C55.8358 35.25 55.5 35.0821 55.5 34.875C55.5 34.6679 55.8358 34.5 56.25 34.5C56.6642 34.5 57 34.6679 57 34.875Z" fill="#C17707"/>
<path d="M62.25 41.25C62.25 41.6642 61.5784 42 60.75 42C59.9216 42 59.25 41.6642 59.25 41.25C59.25 40.8358 59.9216 40.5 60.75 40.5C61.5784 40.5 62.25 40.8358 62.25 41.25Z" fill="#C17707"/>
<path d="M63 64.125C63 64.7463 62.4963 65.25 61.875 65.25C61.2537 65.25 60.75 64.7463 60.75 64.125C60.75 63.5037 61.2537 63 61.875 63C62.4963 63 63 63.5037 63 64.125Z" fill="#FFC24B"/>
<path d="M65.25 62.25C65.25 62.6642 64.9142 63 64.5 63C64.0858 63 63.75 62.6642 63.75 62.25C63.75 61.8358 64.0858 61.5 64.5 61.5C64.9142 61.5 65.25 61.8358 65.25 62.25Z" fill="#FFC24B"/>
<path d="M58.5 64.5C58.5 64.9142 58.8358 65.25 59.25 65.25C59.6642 65.25 60 64.9142 60 64.5C60 64.0858 59.6642 63.75 59.25 63.75C58.8358 63.75 58.5 64.0858 58.5 64.5Z" fill="#FFC24B"/>
<path d="M61.5 60.75C61.5 61.1642 61.8358 61.5 62.25 61.5C62.6642 61.5 63 61.1642 63 60.75C63 60.3358 62.6642 60 62.25 60C61.8358 60 61.5 60.3358 61.5 60.75Z" fill="#FFC24B"/>
<path d="M58.5 61.875C58.5 62.4963 59.0037 63 59.625 63C60.2463 63 60.75 62.4963 60.75 61.875C60.75 61.2537 60.2463 60.75 59.625 60.75C59.0037 60.75 58.5 61.2537 58.5 61.875Z" fill="#FFC24B"/>
<path d="M54.75 63.75C54.75 64.1642 55.0858 64.5 55.5 64.5C55.9142 64.5 56.25 64.1642 56.25 63.75C56.25 63.3358 55.9142 63 55.5 63C55.0858 63 54.75 63.3358 54.75 63.75Z" fill="#FFC24B"/>
<path d="M63.75 58.5C63.75 58.9142 64.0858 59.25 64.5 59.25C64.9142 59.25 65.25 58.9142 65.25 58.5C65.25 58.0858 64.9142 57.75 64.5 57.75C64.0858 57.75 63.75 58.0858 63.75 58.5Z" fill="#FFC24B"/>
<path d="M12.53 16.2375C12.6573 15.5215 13.2797 15 14.0069 15H26.4932C27.2203 15 27.8427 15.5215 27.97 16.2374L33.75 48.75L34.9665 62.7401C35.119 64.4929 33.7372 66 31.9778 66H8.5222C6.76278 66 5.38106 64.4929 5.53348 62.7401L6.75001 48.75L12.53 16.2375Z" fill="#FCB326"/>
<path fill-rule="evenodd" clip-rule="evenodd" d="M5.26156 48.5534L11.0533 15.9749C11.3078 14.5431 12.5527 13.5 14.007 13.5H26.4933C27.9476 13.5 29.1924 14.5431 29.447 15.9749L35.2387 48.5534L36.461 62.6102C36.6896 65.2394 34.617 67.5 31.9779 67.5H8.52231C5.88319 67.5 3.8106 65.2394 4.03923 62.6102L5.26156 48.5534ZM14.007 15C13.2798 15 12.6574 15.5215 12.5301 16.2375L6.75012 48.75L5.53359 62.7401C5.38117 64.4929 6.7629 66 8.52231 66H31.9779C33.7373 66 35.1191 64.4929 34.9667 62.7401L33.7501 48.75L27.9701 16.2375C27.8428 15.5215 27.2204 15 26.4933 15H14.007Z" fill="#5B3303"/>
<path d="M8.5354 66H31.9652C33.7293 66 35.1126 64.4852 34.9529 62.7284L33.9983 52.2284C33.8579 50.6832 32.5623 49.5 31.0107 49.5H9.48995C7.93834 49.5 6.64274 50.6832 6.50227 52.2284L5.54772 62.7284C5.38801 64.4852 6.77131 66 8.5354 66Z" fill="#FFB423"/>
<path d="M15 16.5L9.75 46.5L25.5 16.5H15Z" fill="#FFC555"/>
<path fill-rule="evenodd" clip-rule="evenodd" d="M14.3734 15.7602C14.782 15.8283 15.058 16.2147 14.9899 16.6233L9.73991 48.1233C9.67182 48.5319 9.2854 48.8079 8.87682 48.7398C8.46824 48.6717 8.19223 48.2853 8.26032 47.8767L13.5103 16.3767C13.5784 15.9681 13.9648 15.6921 14.3734 15.7602Z" fill="#FFD179"/>
<path fill-rule="evenodd" clip-rule="evenodd" d="M10.2484 40.5102C10.657 40.5783 10.933 40.9647 10.8649 41.3733L9.73991 48.1233C9.67182 48.5319 9.2854 48.8079 8.87682 48.7398C8.46824 48.6717 8.19223 48.2853 8.26032 47.8767L9.38532 41.1267C9.45342 40.7181 9.83984 40.4421 10.2484 40.5102Z" fill="#FFECC9"/>
<path d="M6.51482 52.2438L5.625 62.625L28.5 49.5H9.50386C7.94631 49.5 6.64783 50.6919 6.51482 52.2438Z" fill="#FFC149"/>
<path fill-rule="evenodd" clip-rule="evenodd" d="M9.6119 51.75C9.22567 51.75 8.90259 52.0433 8.86539 52.4278L7.87157 62.6972C7.83167 63.1095 7.4651 63.4114 7.05281 63.3715C6.64052 63.3316 6.33864 62.965 6.37854 62.5528L7.37236 52.2833C7.48397 51.13 8.45321 50.25 9.6119 50.25H30.0001C30.4143 50.25 30.7501 50.5858 30.7501 51C30.7501 51.4142 30.4143 51.75 30.0001 51.75H9.6119Z" fill="#FFE4A0"/>
<path fill-rule="evenodd" clip-rule="evenodd" d="M9.63025 51.75C9.24018 51.75 8.91523 52.049 8.88284 52.4377L8.62245 55.5623C8.58805 55.9751 8.22554 56.2818 7.81276 56.2474C7.39997 56.213 7.09323 55.8505 7.12763 55.4377L7.38802 52.3131C7.4852 51.147 8.46005 50.25 9.63025 50.25H12.7501C13.1643 50.25 13.5001 50.5858 13.5001 51C13.5001 51.4142 13.1643 51.75 12.7501 51.75H9.63025Z" fill="#FFFAED"/>
<path d="M31.5 64.125C31.5 64.7463 30.9963 65.25 30.375 65.25C29.7537 65.25 29.25 64.7463 29.25 64.125C29.25 63.5037 29.7537 63 30.375 63C30.9963 63 31.5 63.5037 31.5 64.125Z" fill="#FFC24B"/>
<path d="M33.75 62.25C33.75 62.6642 33.4142 63 33 63C32.5858 63 32.25 62.6642 32.25 62.25C32.25 61.8358 32.5858 61.5 33 61.5C33.4142 61.5 33.75 61.8358 33.75 62.25Z" fill="#FFC24B"/>
<path d="M27 64.5C27 64.9142 27.3358 65.25 27.75 65.25C28.1642 65.25 28.5 64.9142 28.5 64.5C28.5 64.0858 28.1642 63.75 27.75 63.75C27.3358 63.75 27 64.0858 27 64.5Z" fill="#FFC24B"/>
<path d="M30 60.75C30 61.1642 30.3358 61.5 30.75 61.5C31.1642 61.5 31.5 61.1642 31.5 60.75C31.5 60.3358 31.1642 60 30.75 60C30.3358 60 30 60.3358 30 60.75Z" fill="#FFC24B"/>
<path d="M27 61.875C27 62.4963 27.5037 63 28.125 63C28.7463 63 29.25 62.4963 29.25 61.875C29.25 61.2537 28.7463 60.75 28.125 60.75C27.5037 60.75 27 61.2537 27 61.875Z" fill="#FFC24B"/>
<path d="M23.25 63.75C23.25 64.1642 23.5858 64.5 24 64.5C24.4142 64.5 24.75 64.1642 24.75 63.75C24.75 63.3358 24.4142 63 24 63C23.5858 63 23.25 63.3358 23.25 63.75Z" fill="#FFC24B"/>
<path d="M32.25 58.5C32.25 58.9142 32.5858 59.25 33 59.25C33.4142 59.25 33.75 58.9142 33.75 58.5C33.75 58.0858 33.4142 57.75 33 57.75C32.5858 57.75 32.25 58.0858 32.25 58.5Z" fill="#FFC24B"/>
<path d="M29.03 7.23745C29.1573 6.52153 29.7797 6 30.5069 6H42.9932C43.7203 6 44.3427 6.52153 44.47 7.23745L50.25 39.75L51.4665 53.7401C51.619 55.4929 50.2372 57 48.4778 57H25.0222C23.2628 57 21.8811 55.4929 22.0335 53.7401L23.25 39.75L29.03 7.23745Z" fill="#FCB326"/>
<path fill-rule="evenodd" clip-rule="evenodd" d="M21.7616 39.5534L27.5533 6.9749C27.8078 5.54306 29.0527 4.5 30.507 4.5H42.9933C44.4476 4.5 45.6924 5.54306 45.947 6.9749L51.7387 39.5534L52.961 53.6102C53.1896 56.2394 51.117 58.5 48.4779 58.5H25.0223C22.3832 58.5 20.3106 56.2394 20.5392 53.6102L21.7616 39.5534ZM30.507 6C29.7798 6 29.1574 6.52153 29.0301 7.23745L23.2501 39.75L22.0336 53.7401C21.8812 55.4929 23.2629 57 25.0223 57H48.4779C50.2373 57 51.6191 55.4929 51.4667 53.7401L50.2501 39.75L44.4701 7.23745C44.3428 6.52153 43.7204 6 42.9933 6H30.507Z" fill="#5B3303"/>
<path d="M25.0354 57H48.4652C50.2293 57 51.6126 55.4852 51.4529 53.7284L50.4983 43.2284C50.3579 41.6832 49.0623 40.5 47.5107 40.5H25.9899C24.4383 40.5 23.1427 41.6832 23.0023 43.2284L22.0477 53.7284C21.888 55.4852 23.2713 57 25.0354 57Z" fill="#FFCF23"/>
<path d="M31.5 7.5L26.25 37.5L42 7.5H31.5Z" fill="#FFC555"/>
<path fill-rule="evenodd" clip-rule="evenodd" d="M30.8734 6.7602C31.282 6.8283 31.558 7.21472 31.4899 7.6233L26.2399 39.1233C26.1718 39.5319 25.7854 39.8079 25.3768 39.7398C24.9682 39.6717 24.6922 39.2853 24.7603 38.8767L30.0103 7.3767C30.0784 6.96812 30.4648 6.69211 30.8734 6.7602Z" fill="#FFD179"/>
<path fill-rule="evenodd" clip-rule="evenodd" d="M26.7484 31.5102C27.157 31.5783 27.433 31.9647 27.3649 32.3733L26.2399 39.1233C26.1718 39.5319 25.7854 39.8079 25.3768 39.7398C24.9682 39.6717 24.6922 39.2853 24.7603 38.8767L25.8853 32.1267C25.9534 31.7181 26.3398 31.4421 26.7484 31.5102Z" fill="#FFECC9"/>
<path d="M23.0148 43.2438L22.125 53.625L45 40.5H26.0039C24.4463 40.5 23.1478 41.6919 23.0148 43.2438Z" fill="#FFDD65"/>
<path fill-rule="evenodd" clip-rule="evenodd" d="M26.1119 42.75C25.7257 42.75 25.4026 43.0433 25.3654 43.4278L24.3716 53.6972C24.3317 54.1095 23.9651 54.4114 23.5528 54.3715C23.1405 54.3316 22.8386 53.965 22.8785 53.5528L23.8724 43.2833C23.984 42.13 24.9532 41.25 26.1119 41.25H46.5001C46.9143 41.25 47.2501 41.5858 47.2501 42C47.2501 42.4142 46.9143 42.75 46.5001 42.75H26.1119Z" fill="#FFF5A0"/>
<path fill-rule="evenodd" clip-rule="evenodd" d="M26.1302 42.75C25.7402 42.75 25.4152 43.049 25.3828 43.4377L25.1225 46.5623C25.0881 46.9751 24.7255 47.2818 24.3128 47.2474C23.9 47.213 23.5932 46.8505 23.6276 46.4377L23.888 43.3131C23.9852 42.147 24.9601 41.25 26.1302 41.25H29.2501C29.6643 41.25 30.0001 41.5858 30.0001 42C30.0001 42.4142 29.6643 42.75 29.2501 42.75H26.1302Z" fill="#FFFAED"/>
<path d="M44.25 28.875C44.25 29.4963 43.4105 30 42.375 30C41.3395 30 40.5 29.4963 40.5 28.875C40.5 28.2537 41.3395 27.75 42.375 27.75C43.4105 27.75 44.25 28.2537 44.25 28.875Z" fill="#C48714"/>
<path d="M45 24C45 24.4142 44.3284 24.75 43.5 24.75C42.6716 24.75 42 24.4142 42 24C42 23.5858 42.6716 23.25 43.5 23.25C44.3284 23.25 45 23.5858 45 24Z" fill="#C48714"/>
<path d="M42.75 20.25C42.75 20.6642 42.0784 21 41.25 21C40.4216 21 39.75 20.6642 39.75 20.25C39.75 19.8358 40.4216 19.5 41.25 19.5C42.0784 19.5 42.75 19.8358 42.75 20.25Z" fill="#C48714"/>
<path d="M43.5 15.375C43.5 15.5821 43.1642 15.75 42.75 15.75C42.3358 15.75 42 15.5821 42 15.375C42 15.1679 42.3358 15 42.75 15C43.1642 15 43.5 15.1679 43.5 15.375Z" fill="#C48714"/>
<path d="M45 18.375C45 18.5821 44.6642 18.75 44.25 18.75C43.8358 18.75 43.5 18.5821 43.5 18.375C43.5 18.1679 43.8358 18 44.25 18C44.6642 18 45 18.1679 45 18.375Z" fill="#C48714"/>
<path d="M41.25 22.875C41.25 23.0821 40.9142 23.25 40.5 23.25C40.0858 23.25 39.75 23.0821 39.75 22.875C39.75 22.6679 40.0858 22.5 40.5 22.5C40.9142 22.5 41.25 22.6679 41.25 22.875Z" fill="#C48714"/>
<path d="M45.75 26.625C45.75 26.8321 45.4142 27 45 27C44.5858 27 44.25 26.8321 44.25 26.625C44.25 26.4179 44.5858 26.25 45 26.25C45.4142 26.25 45.75 26.4179 45.75 26.625Z" fill="#C48714"/>
<path d="M42 25.875C42 26.0821 41.6642 26.25 41.25 26.25C40.8358 26.25 40.5 26.0821 40.5 25.875C40.5 25.6679 40.8358 25.5 41.25 25.5C41.6642 25.5 42 25.6679 42 25.875Z" fill="#C48714"/>
<path d="M47.25 32.25C47.25 32.6642 46.5784 33 45.75 33C44.9216 33 44.25 32.6642 44.25 32.25C44.25 31.8358 44.9216 31.5 45.75 31.5C46.5784 31.5 47.25 31.8358 47.25 32.25Z" fill="#C48714"/>
<path d="M48 55.125C48 55.7463 47.4963 56.25 46.875 56.25C46.2537 56.25 45.75 55.7463 45.75 55.125C45.75 54.5037 46.2537 54 46.875 54C47.4963 54 48 54.5037 48 55.125Z" fill="#FFDC81"/>
<path d="M50.25 53.25C50.25 53.6642 49.9142 54 49.5 54C49.0858 54 48.75 53.6642 48.75 53.25C48.75 52.8358 49.0858 52.5 49.5 52.5C49.9142 52.5 50.25 52.8358 50.25 53.25Z" fill="#FFDC81"/>
<path d="M43.5 55.5C43.5 55.9142 43.8358 56.25 44.25 56.25C44.6642 56.25 45 55.9142 45 55.5C45 55.0858 44.6642 54.75 44.25 54.75C43.8358 54.75 43.5 55.0858 43.5 55.5Z" fill="#FFDC81"/>
<path d="M46.5 51.75C46.5 52.1642 46.8358 52.5 47.25 52.5C47.6642 52.5 48 52.1642 48 51.75C48 51.3358 47.6642 51 47.25 51C46.8358 51 46.5 51.3358 46.5 51.75Z" fill="#FFDC81"/>
<path d="M43.5 52.875C43.5 53.4963 44.0037 54 44.625 54C45.2463 54 45.75 53.4963 45.75 52.875C45.75 52.2537 45.2463 51.75 44.625 51.75C44.0037 51.75 43.5 52.2537 43.5 52.875Z" fill="#FFDC81"/>
<path d="M39.75 54.75C39.75 55.1642 40.0858 55.5 40.5 55.5C40.9142 55.5 41.25 55.1642 41.25 54.75C41.25 54.3358 40.9142 54 40.5 54C40.0858 54 39.75 54.3358 39.75 54.75Z" fill="#FFDC81"/>
<path d="M48.75 49.5C48.75 49.9142 49.0858 50.25 49.5 50.25C49.9142 50.25 50.25 49.9142 50.25 49.5C50.25 49.0858 49.9142 48.75 49.5 48.75C49.0858 48.75 48.75 49.0858 48.75 49.5Z" fill="#FFDC81"/>
</svg>
