<svg width="120" height="120" viewBox="0 0 120 120" fill="none" xmlns="http://www.w3.org/2000/svg">
<path d="M15 60L60 105L105 60L60 15L15 60Z" fill="#FF6480"/>
<path fill-rule="evenodd" clip-rule="evenodd" d="M13.2322 58.2322C12.2559 59.2085 12.2559 60.7915 13.2322 61.7678L58.2322 106.768C59.2085 107.744 60.7914 107.744 61.7678 106.768L106.768 61.7678C107.237 61.2989 107.5 60.663 107.5 60C107.5 59.337 107.237 58.7011 106.768 58.2322L61.7678 13.2322C61.2989 12.7634 60.663 12.5 60 12.5C59.3369 12.5 58.7011 12.7634 58.2322 13.2322L13.2322 58.2322ZM15 60L60 105L105 60L60 15L15 60Z" fill="#60050F"/>
<path d="M73.75 71.25C73.75 71.9404 73.1904 72.5 72.5 72.5C71.8096 72.5 71.25 71.9404 71.25 71.25C71.25 70.5596 71.8096 70 72.5 70C73.1904 70 73.75 70.5596 73.75 71.25Z" fill="#D15151"/>
<path d="M73.75 76.25C73.75 76.9404 73.1904 77.5 72.5 77.5C71.8096 77.5 71.25 76.9404 71.25 76.25C71.25 75.5596 71.8096 75 72.5 75C73.1904 75 73.75 75.5596 73.75 76.25Z" fill="#D15151"/>
<path d="M68.75 81.25C68.75 81.9404 68.1904 82.5 67.5 82.5C66.8096 82.5 66.25 81.9404 66.25 81.25C66.25 80.5596 66.8096 80 67.5 80C68.1904 80 68.75 80.5596 68.75 81.25Z" fill="#D15151"/>
<path d="M65 86.25C65 86.9404 64.4404 87.5 63.75 87.5C63.0596 87.5 62.5 86.9404 62.5 86.25C62.5 85.5596 63.0596 85 63.75 85C64.4404 85 65 85.5596 65 86.25Z" fill="#D15151"/>
<path d="M67.5 67.5C67.5 68.1904 66.9404 68.75 66.25 68.75C65.5596 68.75 65 68.1904 65 67.5C65 66.8096 65.5596 66.25 66.25 66.25C66.9404 66.25 67.5 66.8096 67.5 67.5Z" fill="#D15151"/>
<path d="M80 63.75C80 64.4404 79.4404 65 78.75 65C78.0596 65 77.5 64.4404 77.5 63.75C77.5 63.0596 78.0596 62.5 78.75 62.5C79.4404 62.5 80 63.0596 80 63.75Z" fill="#D15151"/>
<path d="M73.75 64.375C73.75 65.4105 72.9105 66.25 71.875 66.25C70.8395 66.25 70 65.4105 70 64.375C70 63.3395 70.8395 62.5 71.875 62.5C72.9105 62.5 73.75 63.3395 73.75 64.375Z" fill="#D15151"/>
<path d="M68.75 75.625C68.75 76.6605 67.9105 77.5 66.875 77.5C65.8395 77.5 65 76.6605 65 75.625C65 74.5895 65.8395 73.75 66.875 73.75C67.9105 73.75 68.75 74.5895 68.75 75.625Z" fill="#D15151"/>
<path d="M15 60L60 15L105 60L15 60Z" fill="#FF8298"/>
<path fill-rule="evenodd" clip-rule="evenodd" d="M59.9023 20.1168C60.5282 20.4081 60.7994 21.1517 60.508 21.7775L43.633 58.0275C43.3417 58.6534 42.5981 58.9246 41.9723 58.6332C41.3464 58.3419 41.0752 57.5983 41.3666 56.9725L58.2416 20.7225C58.5329 20.0966 59.2765 19.8254 59.9023 20.1168Z" fill="#FFADBC"/>
<path d="M37.5 60L60 105L15 60L60 15L37.5 60Z" fill="#EE8BBB"/>
<path d="M25 60L60 105L15 60L60 15L25 60Z" fill="#FF9BAD"/>
<path d="M37.5 60L60 15L15 60L37.5 60Z" fill="#FFABD3"/>
<path d="M25 60L60 15L15 60L25 60Z" fill="#FFC6D0"/>
<path d="M82.5 60L60 105L105 60L60 15L82.5 60Z" fill="#AC2F6B"/>
<path d="M82.5 60L60 15L105 60L82.5 60Z" fill="#C64683"/>
<path d="M95 60L60 105L105 60L60 15L95 60Z" fill="#D74E67"/>
<path d="M95 60L60 15L105 60L95 60Z" fill="#EB5D76"/>
<path fill-rule="evenodd" clip-rule="evenodd" d="M39.6029 37.8362C40.1076 38.3072 40.1349 39.0982 39.6638 39.6029L22.1638 58.3529C21.6928 58.8576 20.9018 58.8849 20.3971 58.4138C19.8924 57.9428 19.8651 57.1518 20.3362 56.6471L37.8362 37.8971C38.3072 37.3924 39.0982 37.3651 39.6029 37.8362Z" fill="#FFEFF2"/>
</svg>
