<svg width="72" height="72" viewBox="0 0 72 72" fill="none" xmlns="http://www.w3.org/2000/svg">
<path d="M11.2312 38.3743C8.45583 35.5742 6.75 31.7717 6.75 27.5833C6.75 18.9769 13.9526 12 22.8375 12C27.5659 12 31.8178 16.3832 34.7612 20.1598C35.3875 20.9632 36.6125 20.9632 37.2388 20.1598C40.1822 16.3832 44.4341 12 49.1625 12C58.0474 12 65.25 18.9769 65.25 27.5833C65.25 31.9772 63.3727 35.9464 60.3526 38.7792L38.1152 60.8963C36.9451 62.06 35.0547 62.0602 33.8844 60.8967L11.2312 38.3743Z" fill="#E95252"/>
<path fill-rule="evenodd" clip-rule="evenodd" d="M10.1736 39.4381L10.1659 39.4303C7.12825 36.3655 5.25 32.1897 5.25 27.5833C5.25 18.1038 13.1696 10.5 22.8375 10.5C25.6686 10.5 28.2334 11.8077 30.3879 13.4783C32.5524 15.1567 34.4401 17.3076 35.9443 19.2376C35.953 19.2488 35.9594 19.2527 35.9649 19.2553C35.9725 19.2589 35.9847 19.2624 36 19.2624C36.0153 19.2624 36.0275 19.2589 36.0351 19.2553C36.0406 19.2527 36.047 19.2488 36.0557 19.2376C37.5599 17.3076 39.4476 15.1567 41.6121 13.4783C43.7666 11.8077 46.3314 10.5 49.1625 10.5C58.8304 10.5 66.75 18.1038 66.75 27.5833C66.75 32.4083 64.6895 36.7598 61.3951 39.8579L39.1729 61.9598C37.4178 63.7054 34.5823 63.7057 32.8269 61.9604L10.1736 39.4381ZM60.3526 38.7792C63.3727 35.9464 65.25 31.9772 65.25 27.5833C65.25 18.9769 58.0474 12 49.1625 12C44.4341 12 40.1822 16.3832 37.2388 20.1598C36.6125 20.9632 35.3875 20.9632 34.7612 20.1598C31.8178 16.3832 27.5659 12 22.8375 12C13.9526 12 6.75 18.9769 6.75 27.5833C6.75 31.7717 8.45583 35.5742 11.2312 38.3743L33.8844 60.8967C35.0547 62.0602 36.9451 62.06 38.1152 60.8963L60.3526 38.7792Z" fill="#60050F"/>
<path fill-rule="evenodd" clip-rule="evenodd" d="M16.4126 43.5259L33.8843 60.8967C35.0546 62.0602 36.9449 62.06 38.115 60.8963L38.1601 60.8514C37.5947 60.79 37.0421 60.5677 36.5751 60.1819L16.4126 43.5259ZM60.0329 16.0957C57.1699 13.5523 53.3533 12 49.1624 12C44.434 12 40.1821 16.3832 37.2386 20.1598C36.6124 20.9632 35.3873 20.9632 34.7611 20.1598C32.8699 17.7333 30.4385 15.0563 27.6876 13.4525C30.523 15.4709 33.0088 18.5086 34.9001 20.9582C36.0514 22.4493 38.2015 22.4522 39.3962 20.9956C41.7285 18.1517 44.6255 15.1804 48.7496 14.625C52.5039 14.1194 56.6071 14.4389 60.0329 16.0957Z" fill="#D93F3F"/>
<path fill-rule="evenodd" clip-rule="evenodd" d="M6.9043 29.7525C7.65573 31.5414 8.84631 33.1536 10.366 34.4958L32.5298 53.7856C33.6591 54.7684 35.3401 54.7683 36.4693 53.7852L58.2278 34.8411C61.1705 32.4249 62.9997 29.0394 62.9997 25.2917C62.9997 18.2701 56.5788 12.5202 48.4443 12.0334C48.6823 12.0113 48.9216 12 49.1622 12C58.0471 12 65.2497 18.9769 65.2497 27.5833C65.2497 31.9772 63.3723 35.9464 60.3522 38.7792L38.1149 60.8963C36.9448 62.06 35.0544 62.0602 33.8841 60.8967L11.2309 38.3743C8.94328 36.0663 7.38231 33.0773 6.9043 29.7525ZM22.1581 12.0136C26.5879 12.2628 30.5556 15.8792 33.3244 18.9954C33.5729 19.2751 33.8976 19.4433 34.2378 19.5001C31.3246 15.8914 27.2924 12 22.8372 12C22.6097 12 22.3833 12.0046 22.1581 12.0136Z" fill="#D93F3F"/>
<path fill-rule="evenodd" clip-rule="evenodd" d="M8.08447 33.808C8.77563 34.908 9.62152 35.9207 10.596 36.8229L33.9775 58.1549C35.1231 59.2001 36.8764 59.2 38.0218 58.1546L60.9768 37.204C62.1322 36.2095 63.1244 35.0663 63.9146 33.809C63.0684 35.6877 61.8511 37.3734 60.3523 38.7792L38.1149 60.8963C36.9448 62.06 35.0545 62.0602 33.8842 60.8967L11.231 38.3743C9.92195 37.0536 8.85087 35.51 8.08447 33.808ZM22.64 12.0011C24.7554 12.0357 26.7758 12.8497 28.6301 14.0508C26.8327 12.8176 24.8794 12 22.8372 12C22.7714 12 22.7057 12.0004 22.64 12.0011ZM43.3663 14.053C45.2215 12.8506 47.243 12.0358 49.3596 12.0011C49.2939 12.0004 49.2281 12 49.1622 12C47.1189 12 45.1646 12.8186 43.3663 14.053Z" fill="#AE2929"/>
<path d="M28.1938 16.6346C31.0537 20.567 24.2503 19.861 20.6653 24.5215C17.8115 28.2315 15.3461 34.9254 11.754 30.6465C8.16196 26.3676 9.02354 19.731 13.6784 15.8233C18.3333 11.9155 25.3258 12.6911 28.1938 16.6346Z" fill="#FF6D6D"/>
<path d="M26.4705 16.2838C27.5216 18.3861 23.5514 16.9238 20.5138 20.8389C17.3602 24.9033 13.1555 28.5475 11.1336 24.9033C9.54104 21.8263 11.659 17.5675 15.8642 15.391C20.0694 13.2145 25.3142 13.9713 26.4705 16.2838Z" fill="#FF968F"/>
<path d="M55.8416 15.5672C57.6026 17.6805 54.0805 19.0894 51.2628 23.316C48.9661 26.761 42.7388 30.8849 40.344 26.838C38.3618 23.4883 39.2505 17.8012 43.9843 14.876C48.7181 11.9508 53.6969 12.9936 55.8416 15.5672Z" fill="#FF6D6D"/>
<path d="M54.0802 15.5673C55.2903 17.0799 52.6714 17.6806 50.2058 20.1461C47.7403 22.6116 43.5962 24.604 42.3524 22.2007C41.1085 19.7974 42.7627 16.471 46.0472 14.7711C49.3317 13.0711 52.6714 13.8062 54.0802 15.5673Z" fill="#FF968F"/>
<path d="M49.148 16.1354C49.6124 17.0327 48.9948 18.2746 47.7685 18.9093C46.5422 19.544 45.1716 19.3311 44.7071 18.4338C44.2427 17.5365 44.8603 16.2946 46.0866 15.6598C47.313 15.0251 48.6836 15.238 49.148 16.1354Z" fill="#FFD1CE"/>
<path d="M18.5127 17.0737C18.9854 17.987 18.3567 19.2511 17.1086 19.8971C15.8604 20.5431 14.4653 20.3264 13.9926 19.4131C13.5199 18.4998 14.1486 17.2357 15.3967 16.5897C16.6449 15.9437 18.04 16.1603 18.5127 17.0737Z" fill="#FFBFBB"/>
<path fill-rule="evenodd" clip-rule="evenodd" d="M16.7958 16.5396C16.9811 16.9101 16.8309 17.3606 16.4604 17.5458C16.0605 17.7458 14.845 18.5506 13.7107 19.9685C13.4519 20.292 12.98 20.3444 12.6565 20.0857C12.3331 19.8269 12.2806 19.3549 12.5394 19.0315C13.805 17.4494 15.1895 16.5042 15.7896 16.2042C16.1601 16.0189 16.6106 16.1691 16.7958 16.5396Z" fill="#FFEAE9"/>
<path d="M33.75 46.5C33.75 46.9142 33.4142 47.25 33 47.25C32.5858 47.25 32.25 46.9142 32.25 46.5C32.25 46.0858 32.5858 45.75 33 45.75C33.4142 45.75 33.75 46.0858 33.75 46.5Z" fill="#FF6060"/>
<path d="M30.75 48C30.75 48.4142 30.4142 48.75 30 48.75C29.5858 48.75 29.25 48.4142 29.25 48C29.25 47.5858 29.5858 47.25 30 47.25C30.4142 47.25 30.75 47.5858 30.75 48Z" fill="#FF6060"/>
<path d="M31.5 42.75C31.5 43.1642 31.1642 43.5 30.75 43.5C30.3358 43.5 30 43.1642 30 42.75C30 42.3358 30.3358 42 30.75 42C31.1642 42 31.5 42.3358 31.5 42.75Z" fill="#FF6060"/>
<path d="M40.5 44.25C40.5 44.6642 40.1642 45 39.75 45C39.3358 45 39 44.6642 39 44.25C39 43.8358 39.3358 43.5 39.75 43.5C40.1642 43.5 40.5 43.8358 40.5 44.25Z" fill="#FF6060"/>
<path d="M42 45.75C42 46.1642 41.6642 46.5 41.25 46.5C40.8358 46.5 40.5 46.1642 40.5 45.75C40.5 45.3358 40.8358 45 41.25 45C41.6642 45 42 45.3358 42 45.75Z" fill="#FF6060"/>
<path d="M36.75 42.75C36.75 43.1642 36.4142 43.5 36 43.5C35.5858 43.5 35.25 43.1642 35.25 42.75C35.25 42.3358 35.5858 42 36 42C36.4142 42 36.75 42.3358 36.75 42.75Z" fill="#FF6060"/>
<path d="M39.75 40.125C39.75 40.3321 39.5821 40.5 39.375 40.5C39.1679 40.5 39 40.3321 39 40.125C39 39.9179 39.1679 39.75 39.375 39.75C39.5821 39.75 39.75 39.9179 39.75 40.125Z" fill="#FF6060"/>
<path d="M34.5 40.875C34.5 41.0821 34.3321 41.25 34.125 41.25C33.9179 41.25 33.75 41.0821 33.75 40.875C33.75 40.6679 33.9179 40.5 34.125 40.5C34.3321 40.5 34.5 40.6679 34.5 40.875Z" fill="#FF6060"/>
<path d="M27 40.875C27 41.0821 26.8321 41.25 26.625 41.25C26.4179 41.25 26.25 41.0821 26.25 40.875C26.25 40.6679 26.4179 40.5 26.625 40.5C26.8321 40.5 27 40.6679 27 40.875Z" fill="#FF6060"/>
<path d="M36 52.125C36 52.3321 35.8321 52.5 35.625 52.5C35.4179 52.5 35.25 52.3321 35.25 52.125C35.25 51.9179 35.4179 51.75 35.625 51.75C35.8321 51.75 36 51.9179 36 52.125Z" fill="#FF6060"/>
<path d="M38.25 51.375C38.25 51.5821 38.0821 51.75 37.875 51.75C37.6679 51.75 37.5 51.5821 37.5 51.375C37.5 51.1679 37.6679 51 37.875 51C38.0821 51 38.25 51.1679 38.25 51.375Z" fill="#FF6060"/>
<path d="M37.5 44.625C37.5 44.8321 37.3321 45 37.125 45C36.9179 45 36.75 44.8321 36.75 44.625C36.75 44.4179 36.9179 44.25 37.125 44.25C37.3321 44.25 37.5 44.4179 37.5 44.625Z" fill="#FF6060"/>
<path d="M33.75 43.875C33.75 44.0821 33.5821 44.25 33.375 44.25C33.1679 44.25 33 44.0821 33 43.875C33 43.6679 33.1679 43.5 33.375 43.5C33.5821 43.5 33.75 43.6679 33.75 43.875Z" fill="#FF6060"/>
<path d="M24.75 43.125C24.75 43.3321 24.5821 43.5 24.375 43.5C24.1679 43.5 24 43.3321 24 43.125C24 42.9179 24.1679 42.75 24.375 42.75C24.5821 42.75 24.75 42.9179 24.75 43.125Z" fill="#FF6060"/>
<path d="M22.5 40.875C22.5 41.0821 22.3321 41.25 22.125 41.25C21.9179 41.25 21.75 41.0821 21.75 40.875C21.75 40.6679 21.9179 40.5 22.125 40.5C22.3321 40.5 22.5 40.6679 22.5 40.875Z" fill="#FF6060"/>
<path d="M42.75 42.375C42.75 42.5821 42.5821 42.75 42.375 42.75C42.1679 42.75 42 42.5821 42 42.375C42 42.1679 42.1679 42 42.375 42C42.5821 42 42.75 42.1679 42.75 42.375Z" fill="#FF6060"/>
<path d="M46.5 41.625C46.5 41.8321 46.3321 42 46.125 42C45.9179 42 45.75 41.8321 45.75 41.625C45.75 41.4179 45.9179 41.25 46.125 41.25C46.3321 41.25 46.5 41.4179 46.5 41.625Z" fill="#FF6060"/>
<path d="M49.5 41.625C49.5 41.8321 49.3321 42 49.125 42C48.9179 42 48.75 41.8321 48.75 41.625C48.75 41.4179 48.9179 41.25 49.125 41.25C49.3321 41.25 49.5 41.4179 49.5 41.625Z" fill="#FF6060"/>
<path d="M40.5 48.75C40.5 49.1642 40.1642 49.5 39.75 49.5C39.3358 49.5 39 49.1642 39 48.75C39 48.3358 39.3358 48 39.75 48C40.1642 48 40.5 48.3358 40.5 48.75Z" fill="#FF6060"/>
<path d="M38.25 48C38.25 48.8284 37.5784 49.5 36.75 49.5C35.9216 49.5 35.25 48.8284 35.25 48C35.25 47.1716 35.9216 46.5 36.75 46.5C37.5784 46.5 38.25 47.1716 38.25 48Z" fill="#FF6060"/>
<path d="M33.75 50.625C33.75 51.2463 33.2463 51.75 32.625 51.75C32.0037 51.75 31.5 51.2463 31.5 50.625C31.5 50.0037 32.0037 49.5 32.625 49.5C33.2463 49.5 33.75 50.0037 33.75 50.625Z" fill="#FF6060"/>
<path d="M45.75 44.625C45.75 45.2463 45.2463 45.75 44.625 45.75C44.0037 45.75 43.5 45.2463 43.5 44.625C43.5 44.0037 44.0037 43.5 44.625 43.5C45.2463 43.5 45.75 44.0037 45.75 44.625Z" fill="#FF6060"/>
<path d="M27.75 45.375C27.75 45.9963 27.2463 46.5 26.625 46.5C26.0037 46.5 25.5 45.9963 25.5 45.375C25.5 44.7537 26.0037 44.25 26.625 44.25C27.2463 44.25 27.75 44.7537 27.75 45.375Z" fill="#FF6060"/>
</svg>
