<svg width="120" height="120" viewBox="0 0 120 120" fill="none" xmlns="http://www.w3.org/2000/svg">
<path d="M110 60C110 87.6142 87.6142 110 60 110C32.3858 110 10 87.6142 10 60C10 32.3858 32.3858 10 60 10C87.6142 10 110 32.3858 110 60Z" fill="#42EBEB"/>
<path fill-rule="evenodd" clip-rule="evenodd" d="M112.5 60C112.5 88.9949 88.9949 112.5 60 112.5C31.0051 112.5 7.5 88.9949 7.5 60C7.5 31.0051 31.0051 7.5 60 7.5C88.9949 7.5 112.5 31.0051 112.5 60ZM60 110C87.6142 110 110 87.6142 110 60C110 32.3858 87.6142 10 60 10C32.3858 10 10 32.3858 10 60C10 87.6142 32.3858 110 60 110Z" fill="#002D40"/>
<path d="M58.75 47.5C58.75 48.8807 57.6307 50 56.25 50C54.8693 50 53.75 48.8807 53.75 47.5C53.75 46.1193 54.8693 45 56.25 45C57.6307 45 58.75 46.1193 58.75 47.5Z" fill="#ABFFFA"/>
<path d="M72.5 57.5C72.5 58.8807 71.3807 60 70 60C68.6193 60 67.5 58.8807 67.5 57.5C67.5 56.1193 68.6193 55 70 55C71.3807 55 72.5 56.1193 72.5 57.5Z" fill="#FCFFFF"/>
<path d="M47.5 55C47.5 56.3807 46.3807 57.5 45 57.5C43.6193 57.5 42.5 56.3807 42.5 55C42.5 53.6193 43.6193 52.5 45 52.5C46.3807 52.5 47.5 53.6193 47.5 55Z" fill="#ABFFFA"/>
<path d="M36.25 63.125C36.25 64.1605 35.4105 65 34.375 65C33.3395 65 32.5 64.1605 32.5 63.125C32.5 62.0895 33.3395 61.25 34.375 61.25C35.4105 61.25 36.25 62.0895 36.25 63.125Z" fill="#ABFFFA"/>
<path d="M80 66.875C80 67.9105 79.1605 68.75 78.125 68.75C77.0895 68.75 76.25 67.9105 76.25 66.875C76.25 65.8395 77.0895 65 78.125 65C79.1605 65 80 65.8395 80 66.875Z" fill="#ABFFFA"/>
<path d="M77.5 45.625C77.5 46.6605 76.6605 47.5 75.625 47.5C74.5895 47.5 73.75 46.6605 73.75 45.625C73.75 44.5895 74.5895 43.75 75.625 43.75C76.6605 43.75 77.5 44.5895 77.5 45.625Z" fill="#ABFFFA"/>
<path d="M61.25 38.125C61.25 39.1605 60.4105 40 59.375 40C58.3395 40 57.5 39.1605 57.5 38.125C57.5 37.0895 58.3395 36.25 59.375 36.25C60.4105 36.25 61.25 37.0895 61.25 38.125Z" fill="#ABFFFA"/>
<path d="M47.5 43.125C47.5 44.1605 46.6605 45 45.625 45C44.5895 45 43.75 44.1605 43.75 43.125C43.75 42.0895 44.5895 41.25 45.625 41.25C46.6605 41.25 47.5 42.0895 47.5 43.125Z" fill="#ABFFFA"/>
<path d="M76.25 76.875C76.25 77.9105 75.4105 78.75 74.375 78.75C73.3395 78.75 72.5 77.9105 72.5 76.875C72.5 75.8395 73.3395 75 74.375 75C75.4105 75 76.25 75.8395 76.25 76.875Z" fill="#ABFFFA"/>
<path d="M55 84.375C55 85.4105 54.1605 86.25 53.125 86.25C52.0895 86.25 51.25 85.4105 51.25 84.375C51.25 83.3395 52.0895 82.5 53.125 82.5C54.1605 82.5 55 83.3395 55 84.375Z" fill="#ABFFFA"/>
<path d="M50 67.5C50 68.8807 48.8807 70 47.5 70C46.1193 70 45 68.8807 45 67.5C45 66.1193 46.1193 65 47.5 65C48.8807 65 50 66.1193 50 67.5Z" fill="#ABFFFA"/>
<path d="M61.25 58.75C61.25 60.8211 59.5711 62.5 57.5 62.5C55.4289 62.5 53.75 60.8211 53.75 58.75C53.75 56.6789 55.4289 55 57.5 55C59.5711 55 61.25 56.6789 61.25 58.75Z" fill="#FCFFFF"/>
<path d="M68.75 69.375C68.75 71.1009 67.3509 72.5 65.625 72.5C63.8991 72.5 62.5 71.1009 62.5 69.375C62.5 67.6491 63.8991 66.25 65.625 66.25C67.3509 66.25 68.75 67.6491 68.75 69.375Z" fill="#FCFFFF"/>
<path d="M57.5 74.375C57.5 76.1009 56.1009 77.5 54.375 77.5C52.6491 77.5 51.25 76.1009 51.25 74.375C51.25 72.6491 52.6491 71.25 54.375 71.25C56.1009 71.25 57.5 72.6491 57.5 74.375Z" fill="#ABFFFA"/>
<path fill-rule="evenodd" clip-rule="evenodd" d="M44.9845 17.5153C38.3374 17.5153 32.1231 19.3682 26.83 22.5858C17.4375 30.9189 11.205 42.7348 10.1567 56.0091C11.0544 65.0666 15.405 73.1087 21.8737 78.8007C22.2194 79.5003 22.5837 80.189 22.9661 80.8662C21.8494 81.3898 21.28 82.6515 21.6298 83.8371C23.7538 91.0362 27.8486 97.3909 33.29 102.276C41.017 107.168 50.1777 110 59.9998 110C69.8224 110 78.9835 107.168 86.7109 102.275C94.3973 95.3747 99.397 85.5415 99.9488 74.5362C101.599 70.0011 102.5 65.1057 102.5 60C102.5 57.2187 102.233 54.4999 101.723 51.8676C102.871 51.644 103.719 50.6471 103.743 49.4641C103.747 49.2266 103.75 48.9885 103.75 48.75C103.75 29.42 88.0798 13.75 68.7498 13.75C62.4091 13.75 56.4623 15.4361 51.3331 18.3843C50.21 18.617 49.1032 18.894 48.0145 19.2134C47.6809 18.2355 46.7654 17.5438 45.6986 17.5224C45.4611 17.5176 45.2231 17.5153 44.9845 17.5153ZM45.5485 20.0201C45.3609 20.0169 45.1729 20.0153 44.9845 20.0153C42.3989 20.0153 39.8838 20.3172 37.4726 20.8877C23.1451 24.2779 12.4845 37.1516 12.4845 52.5153C12.4845 60.0647 15.0586 67.013 19.377 72.5302C18.1567 68.5693 17.4997 64.3614 17.4997 60C17.4997 45.6996 24.5627 33.0488 35.3905 25.3457C36.3546 24.584 37.3657 23.8791 38.4186 23.236C40.4619 21.9879 42.6628 20.9726 44.9845 20.2268C44.9944 20.2237 45.0042 20.2205 45.014 20.2174C45.1916 20.1504 45.3698 20.0847 45.5485 20.0201ZM25.0194 40.5846C21.8214 46.3341 19.9997 52.9543 19.9997 60C19.9997 66.1761 21.3995 72.0253 23.899 77.2477C29.5748 82.0912 36.9382 85.0153 44.9845 85.0153C49.5973 85.0153 53.9856 84.0543 57.9601 82.3216C60.4966 81.2159 62.8646 79.7958 65.0149 78.1107C62.5781 79.0151 59.995 79.6182 57.3107 79.8749C56.3395 79.9678 55.355 80.0153 54.3595 80.0153C37.4458 80.0153 23.7345 66.304 23.7345 49.3903C23.7345 46.3294 24.1836 43.3734 25.0194 40.5846ZM32.1937 88.7546C30.2331 86.8583 28.4658 84.7632 26.9244 82.5019C32.197 85.6842 38.3769 87.5153 44.9845 87.5153C53.1197 87.5153 60.6129 84.7367 66.557 80.0784C67.5267 79.3185 67.7982 77.9653 67.1967 76.8901C66.5952 75.8149 65.3001 75.3382 64.145 75.7669C61.1008 76.8968 57.8052 77.5153 54.3595 77.5153C38.8265 77.5153 26.2345 64.9233 26.2345 49.3903C26.2345 40.4642 30.3937 32.5063 36.8817 27.3532C39.4642 25.5211 42.2736 23.9878 45.2593 22.8036C38.1902 29.2075 33.7498 38.4602 33.7498 48.75C33.7498 56.8852 36.5284 64.3784 41.1866 70.3225C41.9466 71.2922 43.2997 71.5637 44.3749 70.9622C45.4501 70.3607 45.9268 69.0655 45.4982 67.9105C44.3683 64.8663 43.7498 61.5707 43.7498 58.125C43.7498 42.592 56.3418 30 71.8748 30C84.092 30 94.4953 37.7916 98.3759 48.6815C99.4326 52.2703 99.9997 56.0689 99.9997 60C99.9997 62.126 99.8339 64.2133 99.5144 66.2496C97.1054 50.8967 85.9641 38.4454 71.3367 34.1299C70.1422 33.7775 68.8705 34.358 68.3542 35.4914C67.8379 36.6248 68.2346 37.9653 69.2846 38.6352C77.9873 44.1882 83.7498 53.922 83.7498 65C83.7498 82.2589 69.7587 96.25 52.4998 96.25C44.7493 96.25 37.6568 93.4294 32.1937 88.7546ZM49.5585 98.6236C50.5278 98.7072 51.5088 98.75 52.4998 98.75C71.1394 98.75 86.2498 83.6396 86.2498 65C86.2498 56.1226 82.8223 48.0457 77.2186 42.0205C75.2682 39.9235 73.0542 38.075 70.6293 36.5277C73.5069 37.3767 76.2405 38.5616 78.7846 40.0369C89.9742 46.5258 97.4998 58.634 97.4998 72.4999C97.4998 73.0133 97.4895 73.5244 97.469 74.0328C91.7853 89.2022 77.1535 100 59.9997 100C56.3875 100 52.8871 99.5212 49.5585 98.6236ZM100.759 47.9209C100.856 48.1955 100.949 48.4719 101.038 48.75C101.109 48.9703 101.177 49.1916 101.243 49.414C101.248 49.1932 101.25 48.9719 101.25 48.75C101.25 46.1644 100.948 43.6493 100.377 41.2381C96.9872 26.9106 84.1134 16.25 68.7498 16.25C65.6423 16.25 62.6367 16.6861 59.7908 17.5005C59.8604 17.5002 59.93 17.5 59.9997 17.5C79.2756 17.5 95.5543 30.3327 100.759 47.9209ZM52.2341 20.7533C54.7462 20.2591 57.3427 20 59.9997 20C71.8031 20 82.4123 25.1124 89.734 33.2436C84.7067 29.6289 78.5394 27.5 71.8748 27.5C54.9611 27.5 41.2498 41.2113 41.2498 58.125C41.2498 59.1205 41.2973 60.1049 41.3902 61.0761C41.6468 63.7604 42.25 66.3436 43.1544 68.7804C41.4692 66.6301 40.0492 64.2621 38.9434 61.7256C37.2108 57.751 36.2498 53.3627 36.2498 48.75C36.2498 36.8304 42.6665 26.4095 52.2341 20.7533ZM96.2218 82.2423C91.9325 98.2296 77.3407 110 59.9998 110C46.134 110 34.0258 102.474 27.5369 91.285C26.0615 88.7408 24.8766 86.0072 24.0277 83.1297C25.5749 85.5545 27.4235 87.7685 29.5205 89.7189C29.8433 90.0191 30.1719 90.313 30.5063 90.6005C38.1491 97.9686 48.5452 102.5 59.9997 102.5C75.3175 102.5 88.7426 94.3963 96.2218 82.2423Z" fill="#03777E"/>
<path fill-rule="evenodd" clip-rule="evenodd" d="M60 110C87.6142 110 110 87.6142 110 60C110 32.3858 87.6142 10 60 10C32.3858 10 10 32.3858 10 60C10 87.6142 32.3858 110 60 110ZM60 102.5C83.4721 102.5 102.5 83.4721 102.5 60C102.5 36.5279 83.4721 17.5 60 17.5C36.5279 17.5 17.5 36.5279 17.5 60C17.5 83.4721 36.5279 102.5 60 102.5Z" fill="#039AA4"/>
<path fill-rule="evenodd" clip-rule="evenodd" d="M52.5 98.75C71.1396 98.75 86.25 83.6396 86.25 65C86.25 53.0329 80.0215 42.5205 70.6295 36.5277C86.1631 41.1106 97.5 55.4813 97.5 72.4999C97.5 93.2106 80.7106 110 60 110C42.9815 110 28.6108 98.6632 24.0278 83.1297C30.0206 92.5216 40.5329 98.75 52.5 98.75Z" fill="#00B2BD"/>
<path fill-rule="evenodd" clip-rule="evenodd" d="M45.6488 20.0219C45.428 20.0175 45.2067 20.0153 44.9849 20.0153C27.0356 20.0153 12.4849 34.566 12.4849 52.5153C12.4849 70.4645 27.0356 85.0153 44.9849 85.0153C52.5414 85.0153 59.4955 82.4364 65.0153 78.1107C61.6968 79.3423 58.1069 80.0153 54.3599 80.0153C37.4461 80.0153 23.7349 66.304 23.7349 49.3903C23.7349 35.5028 32.9786 23.7743 45.6488 20.0219Z" fill="#1DEDFA"/>
<path fill-rule="evenodd" clip-rule="evenodd" d="M101.243 49.414C101.248 49.1932 101.25 48.9719 101.25 48.75C101.25 30.8007 86.6993 16.25 68.75 16.25C50.8007 16.25 36.25 30.8007 36.25 48.75C36.25 56.3065 38.8289 63.2607 43.1546 68.7804C41.923 65.462 41.25 61.8721 41.25 58.125C41.25 41.2113 54.9613 27.5 71.875 27.5C85.7625 27.5 97.4909 36.7437 101.243 49.414Z" fill="#0CC6D1"/>
<path fill-rule="evenodd" clip-rule="evenodd" d="M60 13.75C34.4568 13.75 13.75 34.4568 13.75 60C13.75 85.5432 34.4568 106.25 60 106.25C85.5432 106.25 106.25 85.5432 106.25 60C106.25 34.4568 85.5432 13.75 60 13.75ZM11.25 60C11.25 33.0761 33.0761 11.25 60 11.25C86.9239 11.25 108.75 33.0761 108.75 60C108.75 86.9239 86.9239 108.75 60 108.75C33.0761 108.75 11.25 86.9239 11.25 60Z" fill="#0EE3F0"/>
<path fill-rule="evenodd" clip-rule="evenodd" d="M60 13.75C34.4568 13.75 13.75 34.4568 13.75 60C13.75 60.6904 13.1904 61.25 12.5 61.25C11.8096 61.25 11.25 60.6904 11.25 60C11.25 33.0761 33.0761 11.25 60 11.25C60.6904 11.25 61.25 11.8096 61.25 12.5C61.25 13.1904 60.6904 13.75 60 13.75Z" fill="#D0FCFF"/>
<path fill-rule="evenodd" clip-rule="evenodd" d="M64.9694 22.2247C65.1214 22.8981 64.6988 23.5673 64.0254 23.7193C45.4671 27.9099 41.2317 44.0365 40.6214 51.9709C40.5684 52.6592 39.9675 53.1743 39.2792 53.1213C38.5909 53.0684 38.0758 52.4675 38.1287 51.7792C38.7684 43.4635 43.283 25.8402 63.4747 21.2807C64.1481 21.1287 64.8173 21.5513 64.9694 22.2247Z" fill="#1CE0EC"/>
<path fill-rule="evenodd" clip-rule="evenodd" d="M18.6919 53.7514C19.3816 53.7193 19.9666 54.2523 19.9987 54.9419C20.3899 63.3524 27.6986 77.6135 47.068 80.64C47.7501 80.7466 48.2166 81.3859 48.11 82.068C48.0035 82.7501 47.3641 83.2166 46.6821 83.11C26.0514 79.8865 17.9435 64.5643 17.5014 55.0581C17.4693 54.3685 18.0023 53.7834 18.6919 53.7514Z" fill="#9DF9FF"/>
<path fill-rule="evenodd" clip-rule="evenodd" d="M84.1554 46.5786C84.6643 46.1121 85.455 46.1465 85.9215 46.6554C89.6304 50.7015 92.0233 57.9065 92.3427 65.573C92.6636 73.2741 90.9064 81.7083 86.0001 88.25C85.5859 88.8023 84.8024 88.9142 84.2501 88.5C83.6978 88.0858 83.5859 87.3023 84.0001 86.75C88.4688 80.7918 90.149 72.9759 89.8449 65.677C89.5393 58.3435 87.2447 51.7986 84.0786 48.3447C83.6121 47.8358 83.6465 47.0451 84.1554 46.5786Z" fill="#16D0DC"/>
</svg>
