<svg width="120" height="120" viewBox="0 0 120 120" fill="none" xmlns="http://www.w3.org/2000/svg">
<path d="M11.25 42.5L25 16.25L48.75 12.5L53.75 17.5L70 23.75L73.75 30L90 35L97.5 51.25L96.25 63.75L110 83.75L87.5 100.625L71.25 100L53.75 107.5L33.75 93.75L15 86.25L16.25 67.5L10 62.5L11.25 42.5Z" fill="#E3A428"/>
<path fill-rule="evenodd" clip-rule="evenodd" d="M22.7854 15.09C23.1523 14.3895 23.829 13.9039 24.6101 13.7806L48.3601 10.0306C49.1502 9.90585 49.9522 10.1667 50.5178 10.7322L55.1426 15.3571L70.8975 21.4166C71.4181 21.6169 71.8568 21.9855 72.1437 22.4638L75.4009 27.8923L90.7352 32.6105C91.4142 32.8195 91.9722 33.3074 92.2699 33.9524L99.7699 50.2024C99.9568 50.6073 100.032 51.0549 99.9876 51.4988L98.8287 63.088L112.06 82.3337C112.82 83.4384 112.573 84.9456 111.5 85.75L89 102.625C88.5409 102.969 87.9774 103.145 87.4039 103.123L71.7169 102.52L54.7348 109.798C53.9466 110.136 53.0403 110.046 52.3337 109.56L32.5631 95.9678L14.0715 88.5712C13.0657 88.1689 12.4335 87.1646 12.5055 86.0837L13.6687 68.6365L8.43827 64.4522C7.80235 63.9434 7.45408 63.1568 7.50488 62.3441L8.75488 42.3441C8.7768 41.9934 8.87239 41.6512 9.03543 41.34L22.7854 15.09ZM16.25 67.5L15 86.25L33.75 93.75L53.75 107.5L71.25 100L87.5 100.625L110 83.75L96.25 63.75L97.5 51.25L90 35L73.75 30L70 23.75L53.75 17.5L48.75 12.5L25 16.25L11.25 42.5L10 62.5L16.25 67.5Z" fill="#5B3303"/>
<path fill-rule="evenodd" clip-rule="evenodd" d="M17.5936 47.1733C17.7956 46.5132 18.4945 46.1417 19.1546 46.3437L29.6234 49.5469C29.6725 49.5619 29.7206 49.5799 29.7675 49.6009L50.6659 58.9368C51.2963 59.2184 51.579 59.9576 51.2974 60.5879C51.0158 61.2183 50.2766 61.501 49.6462 61.2194L28.8182 51.9149L18.4232 48.7343C17.763 48.5323 17.3916 47.8334 17.5936 47.1733Z" fill="#F7B534"/>
<path d="M82.5 71.25L51.25 73.75L53.75 58.75L76.25 61.25L83.75 50L92.5 55L96.25 63.75L82.5 71.25Z" fill="#D3971F"/>
<path fill-rule="evenodd" clip-rule="evenodd" d="M55.0032 61.8248C55.0525 61.1362 55.6507 60.618 56.3393 60.6672L73.8002 61.9172C74.4888 61.9665 75.0071 62.5647 74.9578 63.2533C74.9085 63.9419 74.3103 64.4602 73.6217 64.4109L56.1608 63.1609C55.4722 63.1116 54.9539 62.5134 55.0032 61.8248Z" fill="#E8A521"/>
<path d="M11.25 42.5L20 57.5L33.75 66.25L51.25 73.75L82.5 71.25L96.25 63.75L110 83.75L87.5 100.625L71.25 100L53.75 107.5L33.75 93.75L15 86.25L16.25 67.5L10 62.5L11.25 42.5Z" fill="#BE8006"/>
<path fill-rule="evenodd" clip-rule="evenodd" d="M20.2021 60.5688C20.5783 59.99 21.3526 59.8257 21.9314 60.202L34.3441 68.2702L48.6236 74.4787C49.2567 74.754 49.5467 75.4903 49.2715 76.1234C48.9962 76.7565 48.2598 77.0466 47.6267 76.7714L33.2517 70.5214C33.1882 70.4937 33.127 70.4609 33.0689 70.4231L20.5689 62.2981C19.9901 61.9218 19.8259 61.1476 20.2021 60.5688Z" fill="#CD9119"/>
<path d="M37.5 83.125L15 86.25L33.75 93.75L55 100L68.75 86.25L53.75 93.75L37.5 83.125Z" fill="#B07705"/>
<path d="M71.25 100L53.75 107.5L33.75 93.75L55 100L68.75 86.25L87.5 93.9062L110 83.75L87.5 100.625L71.25 100Z" fill="#945409"/>
<path d="M20 57.5L10 62.5L16.25 67.5L20 57.5Z" fill="#945409"/>
<path d="M48.75 12.5L53.75 17.5L70 23.75L65 35.625L78.75 40L83.75 50L76.25 61.25L53.75 58.75L28.75 47.5L11.25 42.5L25 16.25L48.75 12.5Z" fill="#FEBB36"/>
<path d="M48.75 12.5L53.75 23.75L58.75 28.75L57.5 38.125L73.75 41.25L75 50L55 51.25L42.5 46.25L30 37.5L11.25 42.5L25 16.25L36.875 14.375L48.75 12.5Z" fill="#FFD481"/>
<path d="M25 16.25L30 37.5L11.25 42.5L25 16.25Z" fill="#FFE6B7"/>
<path d="M68.75 32.5L70 23.75L73.75 30L90 35L97.5 51.25L96.25 63.75L92.5 55L83.75 50L78.75 40L68.75 32.5Z" fill="#A17213"/>
<path d="M92.5 55L97.5 51.25L96.25 63.75L92.5 55Z" fill="#945409"/>
<path d="M96.25 63.75L87.5 93.75L110 83.75L96.25 63.75Z" fill="#B07705"/>
<path d="M73.75 30L70 23.75L68.75 32.5L73.75 30Z" fill="#945409"/>
<path fill-rule="evenodd" clip-rule="evenodd" d="M23.5051 21.2743C24.182 21.1389 24.8406 21.5779 24.976 22.2549L27.476 34.7549C27.6114 35.4318 27.1723 36.0903 26.4954 36.2257C25.8184 36.3611 25.1599 35.9221 25.0245 35.2451L22.5245 22.7451C22.3891 22.0682 22.8281 21.4097 23.5051 21.2743Z" fill="white"/>
<path fill-rule="evenodd" clip-rule="evenodd" d="M27.8315 16.9099C28.5026 16.7479 29.1779 17.1606 29.3399 17.8317L33.6022 35.4897L44.9722 43.2692L55.4757 47.5942C56.1141 47.857 56.4185 48.5876 56.1556 49.226C55.8928 49.8643 55.1622 50.1687 54.5239 49.9059L43.8989 45.5309C43.8181 45.4976 43.741 45.456 43.6689 45.4066L31.7939 37.2816C31.5387 37.107 31.3573 36.8439 31.2847 36.5433L26.9097 18.4183C26.7477 17.7472 27.1604 17.0719 27.8315 16.9099Z" fill="#FFE7B9"/>
<path d="M55.4688 79.0234C55.4688 79.7785 54.8566 80.3906 54.1016 80.3906C53.3465 80.3906 52.7344 79.7785 52.7344 79.0234C52.7344 78.2684 53.3465 77.6562 54.1016 77.6562C54.8566 77.6562 55.4688 78.2684 55.4688 79.0234Z" fill="#AB7200"/>
<path d="M68.0469 82.1875C68.0469 82.9426 67.4348 83.5547 66.6797 83.5547C65.9246 83.5547 65.3125 82.9426 65.3125 82.1875C65.3125 81.4324 65.9246 80.8203 66.6797 80.8203C67.4348 80.8203 68.0469 81.4324 68.0469 82.1875Z" fill="#AB7200"/>
<path d="M74.6094 80.3906C74.6094 81.1457 73.9973 81.7578 73.2422 81.7578C72.4871 81.7578 71.875 81.1457 71.875 80.3906C71.875 79.6355 72.4871 79.0234 73.2422 79.0234C73.9973 79.0234 74.6094 79.6355 74.6094 80.3906Z" fill="#AB7200"/>
<path d="M57.6172 88.7305C57.6172 89.4855 57.0051 90.0977 56.25 90.0977C55.4949 90.0977 54.8828 89.4855 54.8828 88.7305C54.8828 87.9754 55.4949 87.3633 56.25 87.3633C57.0051 87.3633 57.6172 87.9754 57.6172 88.7305Z" fill="#AB7200"/>
<path d="M77.2656 85.9375C77.2656 86.6926 76.6535 87.3047 75.8984 87.3047C75.1434 87.3047 74.5312 86.6926 74.5312 85.9375C74.5312 85.1824 75.1434 84.5703 75.8984 84.5703C76.6535 84.5703 77.2656 85.1824 77.2656 85.9375Z" fill="#AB7200"/>
<path d="M61.7578 76.7773C61.7578 77.2628 61.3643 77.6562 60.8789 77.6562C60.3935 77.6562 60 77.2628 60 76.7773C60 76.2919 60.3935 75.8984 60.8789 75.8984C61.3643 75.8984 61.7578 76.2919 61.7578 76.7773Z" fill="#AB7200"/>
<path d="M69.6289 75.2148C69.6289 75.7003 69.2354 76.0938 68.75 76.0938C68.2646 76.0938 67.8711 75.7003 67.8711 75.2148C67.8711 74.7294 68.2646 74.3359 68.75 74.3359C69.2354 74.3359 69.6289 74.7294 69.6289 75.2148Z" fill="#AB7200"/>
<path d="M64.209 79.8535C64.209 80.1502 63.9685 80.3906 63.6719 80.3906C63.3752 80.3906 63.1348 80.1502 63.1348 79.8535C63.1348 79.5569 63.3752 79.3164 63.6719 79.3164C63.9685 79.3164 64.209 79.5569 64.209 79.8535Z" fill="#AB7200"/>
<path d="M69.8242 79.2871C69.8242 79.5837 69.5837 79.8242 69.2871 79.8242C68.9905 79.8242 68.75 79.5837 68.75 79.2871C68.75 78.9905 68.9905 78.75 69.2871 78.75C69.5837 78.75 69.8242 78.9905 69.8242 79.2871Z" fill="#AB7200"/>
<path d="M63.6719 85.4004C63.6719 85.697 63.4314 85.9375 63.1348 85.9375C62.8381 85.9375 62.5977 85.697 62.5977 85.4004C62.5977 85.1038 62.8381 84.8633 63.1348 84.8633C63.4314 84.8633 63.6719 85.1038 63.6719 85.4004Z" fill="#AB7200"/>
<path d="M58.6914 79.0234C58.6914 79.3201 58.4509 79.5605 58.1543 79.5605C57.8577 79.5605 57.6172 79.3201 57.6172 79.0234C57.6172 78.7268 57.8577 78.4863 58.1543 78.4863C58.4509 78.4863 58.6914 78.7268 58.6914 79.0234Z" fill="#AB7200"/>
<path d="M83.125 86.8164C83.125 87.3018 82.7315 87.6953 82.2461 87.6953C81.7607 87.6953 81.3672 87.3018 81.3672 86.8164C81.3672 86.331 81.7607 85.9375 82.2461 85.9375C82.7315 85.9375 83.125 86.331 83.125 86.8164Z" fill="#AB7200"/>
<path d="M79.0234 81.7578C79.0234 82.2432 78.6299 82.6367 78.1445 82.6367C77.6591 82.6367 77.2656 82.2432 77.2656 81.7578C77.2656 81.2724 77.6591 80.8789 78.1445 80.8789C78.6299 80.8789 79.0234 81.2724 79.0234 81.7578Z" fill="#AB7200"/>
<path d="M72.1094 83.8086C72.1094 84.294 71.7159 84.6875 71.2305 84.6875C70.7451 84.6875 70.3516 84.294 70.3516 83.8086C70.3516 83.3232 70.7451 82.9297 71.2305 82.9297C71.7159 82.9297 72.1094 83.3232 72.1094 83.8086Z" fill="#AB7200"/>
<path d="M55.8594 83.5156C55.8594 84.001 55.4659 84.3945 54.9805 84.3945C54.4951 84.3945 54.1016 84.001 54.1016 83.5156C54.1016 83.0302 54.4951 82.6367 54.9805 82.6367C55.4659 82.6367 55.8594 83.0302 55.8594 83.5156Z" fill="#AB7200"/>
<path d="M49.0039 79.6289C49.0039 80.1143 48.6104 80.5078 48.125 80.5078C47.6396 80.5078 47.2461 80.1143 47.2461 79.6289C47.2461 79.1435 47.6396 78.75 48.125 78.75C48.6104 78.75 49.0039 79.1435 49.0039 79.6289Z" fill="#AB7200"/>
<path d="M74.1211 75.8789C74.1211 76.3643 73.7276 76.7578 73.2422 76.7578C72.7568 76.7578 72.3633 76.3643 72.3633 75.8789C72.3633 75.3935 72.7568 75 73.2422 75C73.7276 75 74.1211 75.3935 74.1211 75.8789Z" fill="#AB7200"/>
<path d="M52.3828 87.3633C52.3828 87.8487 51.9893 88.2422 51.5039 88.2422C51.0185 88.2422 50.625 87.8487 50.625 87.3633C50.625 86.8779 51.0185 86.4844 51.5039 86.4844C51.9893 86.4844 52.3828 86.8779 52.3828 87.3633Z" fill="#AB7200"/>
<path d="M61.6797 82.9297C61.6797 83.8358 60.9452 84.5703 60.0391 84.5703C59.133 84.5703 58.3984 83.8358 58.3984 82.9297C58.3984 82.0236 59.133 81.2891 60.0391 81.2891C60.9452 81.2891 61.6797 82.0236 61.6797 82.9297Z" fill="#AB7200"/>
<path d="M38.8478 18.8889C39.4263 19.0206 39.8079 19.5111 39.7001 19.9844C39.5923 20.4577 39.036 20.7346 38.4576 20.6029C37.8791 20.4712 37.4975 19.9807 37.6053 19.5074C37.7131 19.0341 38.2694 18.7572 38.8478 18.8889Z" fill="#FFE8BB"/>
<path d="M42.1152 21.5193C42.4945 21.6057 42.7447 21.9273 42.6741 22.2377C42.6034 22.5481 42.2386 22.7297 41.8592 22.6433C41.4799 22.5569 41.2297 22.2353 41.3003 21.9249C41.371 21.6145 41.7358 21.4329 42.1152 21.5193Z" fill="#FFE8BB"/>
<path d="M39.6782 27.1013C40.1939 27.2188 40.5341 27.656 40.438 28.078C40.342 28.4999 39.846 28.7468 39.3303 28.6294C38.8146 28.5119 38.4744 28.0747 38.5704 27.6527C38.6665 27.2308 39.1625 26.9839 39.6782 27.1013Z" fill="#FFE8BB"/>
<path d="M39.5864 23.7581C40.1021 23.8756 40.4423 24.3128 40.3462 24.7348C40.2502 25.1567 39.7542 25.4036 39.2385 25.2862C38.7228 25.1687 38.3826 24.7315 38.4787 24.3095C38.5747 23.8876 39.0707 23.6407 39.5864 23.7581Z" fill="#FFE8BB"/>
<path d="M44.3022 28.611C44.818 28.7285 45.1581 29.1657 45.0621 29.5877C44.966 30.0096 44.47 30.2565 43.9543 30.1391C43.4386 30.0216 43.0984 29.5844 43.1945 29.1624C43.2906 28.7405 43.7865 28.4936 44.3022 28.611Z" fill="#FFE8BB"/>
<path d="M34.2636 20.685C34.6429 20.7713 34.8932 21.093 34.8225 21.4033C34.7518 21.7137 34.387 21.8953 34.0077 21.8089C33.6283 21.7225 33.3781 21.4009 33.4488 21.0905C33.5194 20.7802 33.8842 20.5986 34.2636 20.685Z" fill="#FFE8BB"/>
<path d="M34.8227 16.5834C35.202 16.6698 35.4523 16.9914 35.3816 17.3018C35.3109 17.6122 34.9461 17.7937 34.5668 17.7074C34.1874 17.621 33.9372 17.2994 34.0078 16.989C34.0785 16.6786 34.4433 16.497 34.8227 16.5834Z" fill="#FFE8BB"/>
<path d="M42.1835 18.0885C42.5629 18.1749 42.8131 18.4965 42.7424 18.8069C42.6718 19.1173 42.3069 19.2989 41.9276 19.2125C41.5482 19.1261 41.298 18.8045 41.3687 18.4941C41.4394 18.1837 41.8042 18.0021 42.1835 18.0885Z" fill="#FFE8BB"/>
<path d="M49.5546 19.0324C49.934 19.1188 50.1842 19.4404 50.1135 19.7508C50.0429 20.0612 49.678 20.2428 49.2987 20.1564C48.9193 20.07 48.6691 19.7484 48.7398 19.438C48.8105 19.1276 49.1753 18.946 49.5546 19.0324Z" fill="#FFE8BB"/>
<path d="M46.8134 23.5545C47.1928 23.6409 47.443 23.9625 47.3723 24.2729C47.3016 24.5833 46.9368 24.7649 46.5575 24.6785C46.1781 24.5921 45.9279 24.2705 45.9986 23.9601C46.0692 23.6497 46.4341 23.4681 46.8134 23.5545Z" fill="#FFE8BB"/>
<path d="M38.8178 21.7671C39.1971 21.8535 39.4474 22.1751 39.3767 22.4855C39.306 22.7959 38.9412 22.9775 38.5619 22.8911C38.1825 22.8047 37.9323 22.4831 38.003 22.1727C38.0736 21.8623 38.4384 21.6807 38.8178 21.7671Z" fill="#FFE8BB"/>
<path d="M36.9789 28.0946C37.3583 28.181 37.6085 28.5026 37.5378 28.813C37.4672 29.1234 37.1024 29.305 36.723 29.2186C36.3437 29.1322 36.0934 28.8106 36.1641 28.5002C36.2348 28.1898 36.5996 28.0082 36.9789 28.0946Z" fill="#FFE8BB"/>
<path d="M47.3725 26.6411C47.7518 26.7274 48.0021 27.0491 47.9314 27.3595C47.8607 27.6698 47.4959 27.8514 47.1166 27.765C46.7372 27.6787 46.487 27.357 46.5577 27.0467C46.6283 26.7363 46.9931 26.5547 47.3725 26.6411Z" fill="#FFE8BB"/>
<path d="M54.3134 28.5002C54.6928 28.5866 54.943 28.9082 54.8723 29.2186C54.8016 29.529 54.4368 29.7105 54.0575 29.6242C53.6781 29.5378 53.4279 29.2162 53.4986 28.9058C53.5692 28.5954 53.9341 28.4138 54.3134 28.5002Z" fill="#FFE8BB"/>
<path d="M42.1835 30.3755C42.5629 30.4619 42.8131 30.7835 42.7424 31.0939C42.6718 31.4043 42.3069 31.5859 41.9276 31.4995C41.5482 31.4131 41.298 31.0915 41.3687 30.7811C41.4394 30.4707 41.8042 30.2891 42.1835 30.3755Z" fill="#FFE8BB"/>
<path d="M44.5492 16.5834C44.9286 16.6698 45.1788 16.9914 45.1082 17.3018C45.0375 17.6122 44.6727 17.7937 44.2933 17.7074C43.914 17.621 43.6637 17.2994 43.7344 16.989C43.8051 16.6786 44.1699 16.497 44.5492 16.5834Z" fill="#FFE8BB"/>
<path d="M45.9843 20.2977C46.7064 20.4621 47.1826 21.0743 47.0481 21.665C46.9136 22.2557 46.2193 22.6014 45.4973 22.437C44.7752 22.2726 44.299 21.6604 44.4335 21.0697C44.568 20.4789 45.2623 20.1333 45.9843 20.2977Z" fill="#FFE8BB"/>
<path d="M35.7529 24.0477C36.4749 24.2121 36.9512 24.8243 36.8167 25.415C36.6822 26.0057 35.9878 26.3514 35.2658 26.187C34.5438 26.0226 34.0675 25.4104 34.202 24.8197C34.3366 24.2289 35.0309 23.8833 35.7529 24.0477Z" fill="#FFE8BB"/>
<path d="M44.6645 25.1686C45.3865 25.333 45.8628 25.9452 45.7283 26.5359C45.5938 27.1267 44.8994 27.4723 44.1774 27.3079C43.4554 27.1435 42.9792 26.5313 43.1137 25.9406C43.2482 25.3498 43.9425 25.0042 44.6645 25.1686Z" fill="#FFE8BB"/>
<path d="M50.8364 24.8198C51.5584 24.9842 52.0347 25.5964 51.9002 26.1871C51.7657 26.7778 51.0713 27.1234 50.3493 26.959C49.6273 26.7946 49.151 26.1825 49.2855 25.5918C49.42 25.001 50.1144 24.6554 50.8364 24.8198Z" fill="#FFE8BB"/>
</svg>
